HIERARCHY
ROOT Hips
{
	OFFSET 52.362598 -7.076284 85.699600
	CHANNELS 6 Xposition Yposition Zposition Xrotation Yrotation Zrotation
	JOINT spine
	{
		OFFSET 0.000000 -0.367607 6.392601
		CHANNELS 3 Xrotation Yrotation Zrotation
		JOINT spine1
		{
			OFFSET 0.000000 -0.000002 9.176109
			CHANNELS 3 Xrotation Yrotation Zrotation
			JOINT spine2
			{
				OFFSET 0.000000 -0.000001 8.792381
				CHANNELS 3 Xrotation Yrotation Zrotation
				JOINT Neck
				{
					OFFSET 0.000000 -1.076243 22.573708
					CHANNELS 3 Xrotation Yrotation Zrotation
					JOINT Head
					{
						OFFSET 0.000000 -0.000001 6.820114
						CHANNELS 3 Xrotation Yrotation Zrotation
						End Site
						{
							OFFSET 0.000000 5.444267 16.508499
						}
					}
				}
				JOINT RightShoulder
				{
					OFFSET -3.702209 0.515507 9.495087
					CHANNELS 3 Xrotation Yrotation Zrotation
					JOINT RightArm
					{
						OFFSET 0.000000 -0.000002 12.453697
						CHANNELS 3 Xrotation Yrotation Zrotation
						JOINT RightArmRoll
						{
							OFFSET 0.000000 -0.000001 6.286865
							CHANNELS 3 Xrotation Yrotation Zrotation
							JOINT RightForeArm
							{
								OFFSET 0.000000 -0.000003 18.311401
								CHANNELS 3 Xrotation Yrotation Zrotation
								JOINT RightForeArmRoll
								{
									OFFSET 0.000000 -0.000001 7.054825
									CHANNELS 3 Xrotation Yrotation Zrotation
									JOINT RightHand
									{
										OFFSET 0.000000 -0.000002 14.157501
										CHANNELS 3 Xrotation Yrotation Zrotation
										End Site
										{
											OFFSET 0.000000 0.000000 0.100006
										}
									}
								}
							}
						}
					}
				}
				JOINT LeftShoulder
				{
					OFFSET 3.702209 0.515507 9.495087
					CHANNELS 3 Xrotation Yrotation Zrotation
					JOINT LeftArm
					{
						OFFSET 0.000000 -0.000002 12.453697
						CHANNELS 3 Xrotation Yrotation Zrotation
						JOINT LeftArmRoll
						{
							OFFSET 0.000000 -0.000001 6.286850
							CHANNELS 3 Xrotation Yrotation Zrotation
							JOINT LeftForeArm
							{
								OFFSET 0.000000 -0.000003 18.311401
								CHANNELS 3 Xrotation Yrotation Zrotation
								JOINT LeftForeArmRoll
								{
									OFFSET 0.000000 -0.000001 7.054825
									CHANNELS 3 Xrotation Yrotation Zrotation
									JOINT LeftHand
									{
										OFFSET 0.000000 -0.000002 14.157501
										CHANNELS 3 Xrotation Yrotation Zrotation
										End Site
										{
											OFFSET 0.000000 0.000000 0.100006
										}
									}
								}
							}
						}
					}
				}
			}
		}
	}
	JOINT RightUpLeg
	{
		OFFSET -5.666161 0.871610 -1.039032
		CHANNELS 3 Xrotation Yrotation Zrotation
		JOINT RightUpLegRoll
		{
			OFFSET 0.000000 -0.000003 16.600502
			CHANNELS 3 Xrotation Yrotation Zrotation
			JOINT RightLeg
			{
				OFFSET 0.000000 0.000003 -20.557198
				CHANNELS 3 Xrotation Yrotation Zrotation
				JOINT RightLegRoll
				{
					OFFSET 0.000000 -0.000003 20.624397
					CHANNELS 3 Xrotation Yrotation Zrotation
					JOINT RightFoot
					{
						OFFSET 0.000000 -0.000002 17.166405
						CHANNELS 3 Xrotation Yrotation Zrotation
						JOINT RightToeBase
						{
							OFFSET 0.000000 -0.000002 14.350204
							CHANNELS 3 Xrotation Yrotation Zrotation
							End Site
							{
								OFFSET 0.006081 0.801060 6.949707
							}
						}
					}
				}
			}
		}
	}
	JOINT LeftUpLeg
	{
		OFFSET 5.666161 0.871610 -1.039032
		CHANNELS 3 Xrotation Yrotation Zrotation
		JOINT LeftUpLegRoll
		{
			OFFSET 0.000000 -0.000003 16.600601
			CHANNELS 3 Xrotation Yrotation Zrotation
			JOINT LeftLeg
			{
				OFFSET 0.000000 -0.000003 20.557098
				CHANNELS 3 Xrotation Yrotation Zrotation
				JOINT LeftLegRoll
				{
					OFFSET 0.000000 -0.000003 20.815094
					CHANNELS 3 Xrotation Yrotation Zrotation
					JOINT LeftFoot
					{
						OFFSET 0.000000 -0.000003 16.975708
						CHANNELS 3 Xrotation Yrotation Zrotation
						JOINT LeftToeBase
						{
							OFFSET 0.000000 -0.000002 14.350204
							CHANNELS 3 Xrotation Yrotation Zrotation
							End Site
							{
								OFFSET -0.027260 0.801059 6.949707
							}
						}
					}
				}
			}
		}
	}
}
MOTION
Frames: 12
Frame Time: 0.041667
51.382496 -7.975254 85.580299 -4.647544 1.896807 -0.785152 -1.024829 0.241262 -0.056972 1.953390 0.482894 -0.101380 3.598498 0.481643 -0.107161 8.377969 -6.359968 -0.859457 4.709418 3.186449 -0.395006 -5.724922 -65.855345 -7.319065 -52.263037 -113.266919 -41.008398 -0.000001 0.000000 -0.000003 0.381526 -11.640454 -0.486645 0.000002 0.000001 -3.008919 -5.000212 -7.998724 0.000151 1.222860 52.733609 -2.300316 -32.741584 116.793680 27.563490 -0.000001 0.000034 0.000001 4.020788 8.373956 0.316454 0.000003 0.000011 3.009529 -5.000233 7.998934 -0.000127 3.878631 -177.283229 0.701236 -179.999991 0.000005 -1.118001 174.899834 -3.581793 -0.515461 0.000001 0.000001 0.051522 68.851353 6.871794 2.194221 25.456960 -7.355616 -0.000001 2.424883 173.815501 -0.681321 -0.000004 -0.000004 -1.040920 -9.250313 1.039082 0.725592 -0.000008 -0.000001 -0.084488 71.175018 -6.194774 -3.884103 25.464834 7.355619 -0.000004 
51.395897 -7.979963 85.585892 -4.654148 1.892285 -0.787673 -1.022642 0.243282 -0.056421 1.957770 0.486933 -0.101029 3.602880 0.485680 -0.106861 8.370821 -6.386171 -0.856435 4.727346 3.210404 -0.391474 -5.758807 -65.871628 -7.358883 -52.458916 -113.271939 -41.071966 -0.000001 0.000000 -0.000002 0.359777 -11.554481 -0.509705 0.000002 0.000001 -3.010299 -5.000214 -7.998724 0.000151 1.214865 52.724897 -2.291872 -32.788890 116.798120 27.533575 -0.000002 0.000034 0.000002 3.950583 8.307206 0.325644 0.000004 0.000011 3.009530 -5.000232 7.998932 -0.000127 3.884536 -177.280251 0.681733 -179.999991 0.000005 -1.119996 174.895531 -3.536950 -0.514739 0.000002 0.000001 0.051522 68.850219 6.873212 2.190659 25.456959 -7.355615 -0.000001 2.467644 173.827686 -0.680769 -0.000005 -0.000004 -1.043660 -9.177508 1.041270 0.721194 -0.000008 -0.000001 -0.084458 71.142287 -6.207954 -3.848316 25.464834 7.355618 -0.000004 
51.401794 -7.991014 85.586601 -4.660716 1.887653 -0.790331 -1.020411 0.245387 -0.055818 1.962223 0.491140 -0.100603 3.607333 0.489888 -0.106488 8.362637 -6.413479 -0.853557 4.745972 3.235074 -0.387986 -5.792962 -65.888909 -7.399087 -52.654826 -113.277321 -41.136109 -0.000001 0.000001 -0.000001 0.337286 -11.468910 -0.532939 -0.000000 0.000001 -3.011670 -5.000209 -7.998724 0.000150 1.206667 52.715977 -2.283213 -32.834355 116.803188 27.503787 -0.000000 0.000035 0.000001 3.881530 8.241834 0.334406 0.000003 0.000010 3.009530 -5.000235 7.998934 -0.000128 3.890530 -177.278270 0.661347 -179.999991 0.000006 -1.121007 174.891228 -3.490119 -0.513833 0.000002 0.000001 0.051522 68.849092 6.874701 2.186909 25.456960 -7.355618 -0.000001 2.511663 173.839885 -0.680110 -0.000005 -0.000004 -1.046490 -9.102102 1.043407 0.716628 -0.000008 -0.000001 -0.084413 71.108348 -6.221628 -3.811389 25.464841 7.355619 -0.000004 
51.399792 -7.984525 85.587997 -4.667267 1.882950 -0.793084 -1.018168 0.247551 -0.055179 1.966714 0.495466 -0.100124 3.611825 0.494213 -0.106065 8.353732 -6.441551 -0.850767 4.765083 3.260257 -0.384537 -5.827301 -65.906763 -7.439539 -52.850788 -113.283052 -41.200668 -0.000001 0.000001 -0.000002 0.314278 -11.383740 -0.556272 0.000001 0.000001 -3.013020 -5.000212 -7.998724 0.000151 1.198325 52.706873 -2.274399 -32.878526 116.809089 27.474030 0.000001 0.000033 0.000002 3.813260 8.177436 0.342826 0.000003 0.000011 3.009530 -5.000235 7.998934 -0.000127 3.896567 -177.275292 0.640458 -179.999991 0.000005 -1.123001 174.886871 -3.443276 -0.512909 0.000002 0.000001 0.051522 68.847993 6.876226 2.183062 25.456957 -7.355615 -0.000001 2.556555 173.852083 -0.679367 -0.000005 -0.000004 -1.049390 -9.024866 1.045488 0.711938 -0.000007 -0.000001 -0.084357 71.073658 -6.235616 -3.773664 25.464834 7.355619 -0.000004 
51.393894 -7.948654 85.585197 -4.673808 1.878208 -0.795891 -1.015910 0.249749 -0.054520 1.971235 0.499859 -0.099617 3.616338 0.498607 -0.105614 8.344422 -6.470078 -0.848048 4.784473 3.285716 -0.381115 -5.861800 -65.925122 -7.480215 -53.044748 -113.289663 -41.263249 -0.000000 0.000000 -0.000003 0.290986 -11.298565 -0.579634 0.000000 0.000001 -3.014379 -5.000210 -7.998724 0.000151 1.189905 52.697744 -2.265506 -32.921225 116.815728 27.443502 -0.000002 0.000035 0.000001 3.745463 8.113589 0.350989 0.000004 0.000011 3.009529 -5.000233 7.998933 -0.000127 3.902643 -177.272328 0.619242 -179.999991 0.000005 -1.124995 174.882527 -3.394446 -0.511811 0.000002 0.000001 0.051522 68.846900 6.877790 2.179222 25.456957 -7.355617 -0.000001 2.601947 173.864282 -0.678570 -0.000004 -0.000005 -1.052330 -8.946589 1.047531 0.707177 -0.000008 -0.000001 -0.084295 71.038400 -6.249826 -3.735617 25.464832 7.355618 -0.000004 
51.394794 -7.952757 85.582901 -4.680348 1.873456 -0.798713 -1.013651 0.251956 -0.053855 1.975757 0.504268 -0.099102 3.620870 0.503017 -0.105155 8.335004 -6.498707 -0.845345 4.803928 3.311263 -0.377714 -5.896326 -65.943468 -7.520926 -53.240286 -113.295886 -41.327593 -0.000000 0.000001 -0.000002 0.267625 -11.213486 -0.602947 0.000001 0.000001 -3.015730 -5.000212 -7.998725 0.000150 1.181468 52.688523 -2.256587 -32.964983 116.821534 27.414358 -0.000002 0.000034 0.000002 3.677800 8.049879 0.358974 0.000005 0.000011 3.009530 -5.000232 7.998934 -0.000127 3.908720 -177.269350 0.597945 -179.999991 0.000005 -1.127003 174.878142 -3.346611 -0.510785 0.000002 0.000001 0.051522 68.845800 6.879350 2.175384 25.456959 -7.355618 -0.000000 2.647463 173.877505 -0.677696 -0.000005 -0.000005 -1.055270 -8.868050 1.049565 0.702396 -0.000008 -0.000001 -0.084232 71.003081 -6.264173 -3.697309 25.464832 7.355619 -0.000004 
51.414898 -7.965462 85.583092 -4.686901 1.868724 -0.801509 -1.011389 0.254144 -0.053201 1.980268 0.508645 -0.098603 3.625382 0.507394 -0.104712 8.325796 -6.527126 -0.842629 4.823257 3.336659 -0.374325 -5.930880 -65.961603 -7.561644 -53.435179 -113.302142 -41.391213 -0.000000 0.000000 -0.000002 0.244436 -11.128304 -0.626146 0.000001 0.000001 -3.017080 -5.000209 -7.998724 0.000151 1.173073 52.679313 -2.247725 -33.008713 116.827367 27.384783 -0.000002 0.000034 0.000001 3.609945 7.985881 0.366857 0.000003 0.000011 3.009529 -5.000234 7.998934 -0.000128 3.914784 -177.267383 0.576742 -179.999991 0.000006 -1.128998 174.873770 -3.297783 -0.510672 0.000002 0.000001 0.051522 68.844707 6.880913 2.171544 25.456959 -7.355616 -0.000000 2.692731 173.889704 -0.676869 -0.000005 -0.000004 -1.058200 -8.790033 1.051595 0.697643 -0.000008 -0.000001 -0.084172 70.967960 -6.278467 -3.659386 25.464837 7.355619 -0.000005 
51.407997 -7.956115 85.582893 -4.693450 1.864043 -0.804239 -1.009151 0.256292 -0.052573 1.984750 0.512937 -0.098143 3.629856 0.511686 -0.104306 8.317102 -6.554982 -0.839852 4.842240 3.361707 -0.370936 -5.965389 -65.979327 -7.602276 -53.629631 -113.308522 -41.454054 -0.000002 0.000001 -0.000002 0.221636 -11.042925 -0.649151 0.000002 0.000001 -3.018440 -5.000209 -7.998724 0.000150 1.164789 52.670293 -2.238975 -33.052617 116.833268 27.354322 -0.000001 0.000034 0.000001 3.541566 7.921169 0.374714 0.000005 0.000011 3.009530 -5.000232 7.998933 -0.000127 3.920809 -177.264405 0.556018 -179.999991 0.000005 -1.131006 174.869413 -3.250956 -0.509732 0.000002 0.000001 0.051522 68.843601 6.882440 2.167700 25.456960 -7.355617 0.000000 2.737362 173.901916 -0.676066 -0.000005 -0.000005 -1.061080 -8.713316 1.053641 0.692970 -0.000008 -0.000001 -0.084120 70.933516 -6.292559 -3.622101 25.464837 7.355619 -0.000005 
51.403397 -7.953523 85.582397 -4.700030 1.859451 -0.806862 -1.006940 0.258372 -0.051987 1.989181 0.517093 -0.097743 3.634287 0.515843 -0.103960 8.309231 -6.581966 -0.836976 4.860670 3.386177 -0.367538 -5.999738 -65.996163 -7.642656 -53.827054 -113.313678 -41.519760 -0.000002 -0.000001 -0.000002 0.199457 -10.957139 -0.671902 0.000002 0.000001 -3.019810 -5.000208 -7.998725 0.000150 1.156674 52.661469 -2.230402 -33.099244 116.837653 27.325128 -0.000001 0.000035 0.000002 3.472322 7.855338 0.382612 0.000003 0.000011 3.009530 -5.000234 7.998932 -0.000127 3.926766 -177.261441 0.535945 -179.999991 0.000005 -1.133001 174.865096 -3.205110 -0.508871 0.000002 0.000001 0.051523 68.842378 6.883923 2.164054 25.456962 -7.355615 -0.000000 2.780997 173.914115 -0.675321 -0.000004 -0.000004 -1.063880 -8.638688 1.055728 0.688427 -0.000008 -0.000001 -0.084079 70.900034 -6.306388 -3.585627 25.464835 7.355619 -0.000004 
51.403698 -7.948915 85.578400 -4.706634 1.854968 -0.809339 -1.004760 0.260359 -0.051458 1.993543 0.521065 -0.097427 3.638651 0.519813 -0.103694 8.302506 -6.607733 -0.833959 4.878326 3.409862 -0.364118 -6.033895 -66.011989 -7.682743 -54.023726 -113.318808 -41.584063 -0.000001 0.000000 -0.000002 0.178125 -10.870952 -0.694326 0.000004 0.000001 -3.021189 -5.000212 -7.998724 0.000151 1.148786 52.652743 -2.222075 -33.146235 116.842147 27.293989 -0.000001 0.000035 0.000001 3.401913 7.787956 0.390616 0.000003 0.000011 3.009529 -5.000234 7.998933 -0.000128 3.932643 -177.258463 0.516771 -179.999991 0.000005 -1.134995 174.860820 -3.160270 -0.508078 0.000002 0.000001 0.051522 68.841224 6.885306 2.160484 25.456959 -7.355616 -0.000001 2.823247 173.925317 -0.674707 -0.000005 -0.000004 -1.066580 -8.566931 1.057866 0.684063 -0.000008 -0.000001 -0.084054 70.867796 -6.319794 -3.550420 25.464841 7.355621 -0.000004 
51.397995 -7.943223 85.581398 -4.713275 1.850635 -0.811629 -1.002623 0.262228 -0.051002 1.997813 0.524801 -0.097217 3.642923 0.523547 -0.103531 8.297216 -6.631952 -0.830773 4.895022 3.432546 -0.360665 -6.067761 -66.026407 -7.722378 -54.223250 -113.322667 -41.650794 -0.000002 0.000000 -0.000002 0.157858 -10.784164 -0.716354 0.000001 0.000001 -3.022591 -5.000210 -7.998725 0.000151 1.141193 52.644417 -2.214057 -33.195932 116.845153 27.262908 -0.000003 0.000034 0.000002 3.329985 7.718596 0.398793 0.000005 0.000011 3.009531 -5.000234 7.998932 -0.000128 3.938408 -177.255485 0.498741 -179.999991 0.000006 -1.136006 174.856572 -3.118413 -0.507557 0.000002 0.000001 0.051522 68.839954 6.886646 2.157113 25.456959 -7.355615 -0.000000 2.863744 173.936532 -0.674205 -0.000005 -0.000004 -1.069140 -8.498815 1.060072 0.679927 -0.000008 -0.000001 -0.084050 70.837374 -6.332608 -3.516818 25.464837 7.355617 -0.000005 
51.398895 -7.939683 85.581696 -4.719970 1.846491 -0.813690 -1.000538 0.263952 -0.050633 2.001975 0.528248 -0.097135 3.647085 0.526993 -0.103493 8.293691 -6.654294 -0.827345 4.910541 3.454007 -0.357167 -6.101260 -66.039139 -7.761470 -54.423477 -113.325672 -41.717446 -0.000003 0.000001 -0.000002 0.138889 -10.696573 -0.737925 0.000004 0.000001 -3.024009 -5.000209 -7.998724 0.000150 1.133955 52.636494 -2.206417 -33.248763 116.846751 27.231606 -0.000001 0.000034 0.000001 3.256228 7.646843 0.407197 0.000002 0.000011 3.009530 -5.000232 7.998932 -0.000127 3.944033 -177.253518 0.482029 -179.999991 0.000005 -1.138000 174.852378 -3.079547 -0.506285 0.000002 0.000001 0.051522 68.838560 6.887907 2.153839 25.456955 -7.355616 0.000000 2.902122 173.947720 -0.673849 -0.000005 -0.000004 -1.071540 -8.435140 1.062365 0.676071 -0.000008 -0.000001 -0.084072 70.808940 -6.344725 -3.485189 25.464835 7.355621 -0.000004 
